<svg width="32" height="34" viewBox="0 0 32 34" fill="none" xmlns="http://www.w3.org/2000/svg">
<g id="material-symbols:calendar-month-rounded">
<path id="Vector" d="M15.9308 19.5031C15.5664 19.5031 15.2607 19.3694 15.0138 19.1018C14.7668 18.8343 14.6438 18.5036 14.6446 18.1098C14.6446 17.715 14.7681 17.3839 15.0151 17.1163C15.262 16.8488 15.5672 16.7155 15.9308 16.7165C16.2952 16.7165 16.6009 16.8502 16.8478 17.1177C17.0948 17.3853 17.2178 17.7159 17.2169 18.1098C17.2169 18.5046 17.0935 18.8357 16.8465 19.1032C16.5996 19.3708 16.2943 19.504 15.9308 19.5031ZM10.7862 19.5031C10.4218 19.5031 10.1161 19.3694 9.86918 19.1018C9.62224 18.8343 9.4992 18.5036 9.50006 18.1098C9.50006 17.715 9.62353 17.3839 9.87047 17.1163C10.1174 16.8488 10.4227 16.7155 10.7862 16.7165C11.1506 16.7165 11.4563 16.8502 11.7032 17.1177C11.9502 17.3853 12.0732 17.7159 12.0724 18.1098C12.0724 18.5046 11.9489 18.8357 11.7019 19.1032C11.455 19.3708 11.1498 19.504 10.7862 19.5031ZM21.0754 19.5031C20.711 19.5031 20.4053 19.3694 20.1584 19.1018C19.9114 18.8343 19.7884 18.5036 19.7892 18.1098C19.7892 17.715 19.9127 17.3839 20.1596 17.1163C20.4066 16.8488 20.7118 16.7155 21.0754 16.7165C21.4398 16.7165 21.7455 16.8502 21.9924 17.1177C22.2393 17.3853 22.3624 17.7159 22.3615 18.1098C22.3615 18.5046 22.2381 18.8357 21.9911 19.1032C21.7442 19.3708 21.4389 19.504 21.0754 19.5031ZM15.9308 25.0764C15.5664 25.0764 15.2607 24.9427 15.0138 24.6751C14.7668 24.4076 14.6438 24.0769 14.6446 23.6831C14.6446 23.2883 14.7681 22.9572 15.0151 22.6897C15.262 22.4221 15.5672 22.2888 15.9308 22.2898C16.2952 22.2898 16.6009 22.4235 16.8478 22.691C17.0948 22.9586 17.2178 23.2892 17.2169 23.6831C17.2169 24.0779 17.0935 24.409 16.8465 24.6765C16.5996 24.9441 16.2943 25.0773 15.9308 25.0764ZM10.7862 25.0764C10.4218 25.0764 10.1161 24.9427 9.86918 24.6751C9.62224 24.4076 9.4992 24.0769 9.50006 23.6831C9.50006 23.2883 9.62353 22.9572 9.87047 22.6897C10.1174 22.4221 10.4227 22.2888 10.7862 22.2898C11.1506 22.2898 11.4563 22.4235 11.7032 22.691C11.9502 22.9586 12.0732 23.2892 12.0724 23.6831C12.0724 24.0779 11.9489 24.409 11.7019 24.6765C11.455 24.9441 11.1498 25.0773 10.7862 25.0764ZM21.0754 25.0764C20.711 25.0764 20.4053 24.9427 20.1584 24.6751C19.9114 24.4076 19.7884 24.0769 19.7892 23.6831C19.7892 23.2883 19.9127 22.9572 20.1596 22.6897C20.4066 22.4221 20.7118 22.2888 21.0754 22.2898C21.4398 22.2898 21.7455 22.4235 21.9924 22.691C22.2393 22.9586 22.3624 23.2892 22.3615 23.6831C22.3615 24.0779 22.2381 24.409 21.9911 24.6765C21.7442 24.9441 21.4389 25.0773 21.0754 25.0764ZM6.92776 30.6497C6.22038 30.6497 5.61461 30.3766 5.11044 29.8304C4.60627 29.2843 4.35461 28.6285 4.35547 27.8631V8.35651C4.35547 7.59018 4.60756 6.93393 5.11173 6.38774C5.61589 5.84156 6.22124 5.56893 6.92776 5.56986H8.21391V4.17653C8.21391 3.78176 8.33738 3.45061 8.58432 3.18309C8.83126 2.91557 9.13651 2.78228 9.50006 2.78321C9.86447 2.78321 10.1701 2.91697 10.4171 3.18449C10.664 3.452 10.7871 3.78269 10.7862 4.17653V5.56986H21.0754V4.17653C21.0754 3.78176 21.1988 3.45061 21.4458 3.18309C21.6927 2.91557 21.998 2.78228 22.3615 2.78321C22.7259 2.78321 23.0316 2.91697 23.2785 3.18449C23.5255 3.452 23.6485 3.78269 23.6477 4.17653V5.56986H24.9338C25.6412 5.56986 26.247 5.84295 26.7511 6.38913C27.2553 6.93532 27.507 7.59111 27.5061 8.35651V27.8631C27.5061 28.6294 27.254 29.2857 26.7499 29.8318C26.2457 30.378 25.6403 30.6507 24.9338 30.6497H6.92776ZM6.92776 27.8631H24.9338V13.9298H6.92776V27.8631Z" fill="#C72D3C"/>
</g>
</svg>
