<svg width="73" height="73" viewBox="0 0 73 73" fill="none" xmlns="http://www.w3.org/2000/svg">
<g id="bi:cloud-sun-fill" clip-path="url(#clip0_521_91)">
<g id="Group">
<path id="Vector" d="M52.3442 50.1868C51.8309 45.561 49.7611 41.2469 46.4743 37.9518C43.1875 34.6567 38.8787 32.576 34.2543 32.051C29.6299 31.526 24.9643 32.5877 21.0224 35.0622C17.0806 37.5366 14.0964 41.2769 12.5592 45.6699C9.03667 45.9582 5.76221 47.5979 3.42125 50.2458C1.08029 52.8936 -0.1457 56.3444 -8.58335e-05 59.8757C0.145529 63.407 1.65146 66.7451 4.20247 69.1912C6.75349 71.6374 10.1518 73.0019 13.6861 72.9993H52.4674C55.4925 72.9993 58.3937 71.7975 60.5328 69.6584C62.6719 67.5194 63.8736 64.6181 63.8736 61.593C63.8736 58.5679 62.6719 55.6667 60.5328 53.5276C58.3937 51.3885 55.4925 50.1868 52.4674 50.1868H52.3442Z" fill="#C72D3C"/>
<path id="Vector_2" d="M47.9053 6.84375C47.9053 6.23872 47.665 5.65848 47.2372 5.23066C46.8093 4.80285 46.2291 4.5625 45.6241 4.5625C45.019 4.5625 44.4388 4.80285 44.011 5.23066C43.5832 5.65848 43.3428 6.23872 43.3428 6.84375V11.4062C43.3428 12.0113 43.5832 12.5915 44.011 13.0193C44.4388 13.4472 45.019 13.6875 45.6241 13.6875C46.2291 13.6875 46.8093 13.4472 47.2372 13.0193C47.665 12.5915 47.9053 12.0113 47.9053 11.4062V6.84375ZM64.9827 15.8045C65.2006 15.5941 65.3744 15.3423 65.494 15.064C65.6135 14.7857 65.6765 14.4863 65.6791 14.1834C65.6817 13.8805 65.624 13.5801 65.5093 13.2998C65.3946 13.0194 65.2252 12.7647 65.011 12.5505C64.7968 12.3363 64.5421 12.167 64.2618 12.0523C63.9814 11.9375 63.681 11.8798 63.3781 11.8825C63.0752 11.8851 62.7759 11.948 62.4975 12.0676C62.2192 12.1871 61.9675 12.3609 61.7571 12.5788L58.5268 15.8045C58.0985 16.2329 57.8578 16.8138 57.8578 17.4196C57.8578 18.0254 58.0985 18.6064 58.5268 19.0347C58.9552 19.4631 59.5361 19.7038 60.1419 19.7038C60.7477 19.7038 61.3287 19.4631 61.7571 19.0347L64.9827 15.8045ZM29.4911 12.5788C29.0608 12.1633 28.4846 11.9333 27.8864 11.9385C27.2883 11.9437 26.7161 12.1836 26.2932 12.6066C25.8702 13.0296 25.6303 13.6017 25.6251 14.1999C25.6199 14.798 25.8498 15.3743 26.2654 15.8045L29.4911 19.0347C29.7032 19.2469 29.955 19.4151 30.2321 19.5299C30.5092 19.6447 30.8062 19.7038 31.1062 19.7038C31.4061 19.7038 31.7032 19.6447 31.9803 19.5299C32.2574 19.4151 32.5092 19.2469 32.7213 19.0347C32.9334 18.8226 33.1017 18.5708 33.2164 18.2937C33.3312 18.0166 33.3903 17.7196 33.3903 17.4196C33.3903 17.1197 33.3312 16.8226 33.2164 16.5455C33.1017 16.2684 32.9334 16.0166 32.7213 15.8045L29.4911 12.5788ZM37.4024 27.9727C37.9695 26.7976 38.782 25.7577 39.7851 24.9233C40.7881 24.0889 41.9585 23.4793 43.2172 23.1356C44.4759 22.7919 45.7937 22.7222 47.0817 22.9311C48.3696 23.14 49.5978 23.6227 50.6833 24.3466C51.7689 25.0706 52.6866 26.0189 53.3745 27.1276C54.0624 28.2363 54.5045 29.4796 54.671 30.7738C54.8375 32.0679 54.7246 33.3827 54.3398 34.6294C53.955 35.8762 53.3073 37.0259 52.4404 38.0011C53.3484 39.2831 54.1377 40.6564 54.7947 42.0982C56.3409 40.7011 57.5477 38.9695 58.3231 37.0353C59.0985 35.1011 59.422 33.0153 59.269 30.9371C59.116 28.8588 58.4905 26.843 57.4401 25.0432C56.3898 23.2434 54.9424 21.7072 53.2082 20.5517C51.474 19.3962 49.4989 18.6519 47.4335 18.3756C45.368 18.0992 43.2668 18.2982 41.2898 18.9572C39.3129 19.6162 37.5126 20.7179 36.0261 22.1783C34.5396 23.6387 33.4061 25.4192 32.7122 27.3841C34.3182 27.4343 35.8877 27.6351 37.4024 27.9727ZM57.8607 46.5603C60.5982 47.5412 62.9935 49.2522 64.8048 51.4513C65.0532 51.2502 65.2565 50.9991 65.4017 50.7143C65.5468 50.4295 65.6305 50.1174 65.6472 49.7982C65.664 49.479 65.6135 49.1599 65.4991 48.8615C65.3846 48.5631 65.2087 48.292 64.9827 48.0659L61.7571 44.8403C61.4319 44.5131 61.0151 44.2922 60.5618 44.2068C60.1085 44.1213 59.6399 44.1753 59.2179 44.3616C58.7959 44.5479 58.4403 44.8577 58.198 45.2503C57.9557 45.6428 57.8381 46.0996 57.8607 46.5603ZM66.1553 29.6562C65.5503 29.6562 64.97 29.8966 64.5422 30.3244C64.1144 30.7522 63.8741 31.3325 63.8741 31.9375C63.8741 32.5425 64.1144 33.1228 64.5422 33.5506C64.97 33.9784 65.5503 34.2188 66.1553 34.2188H70.7178C71.3228 34.2188 71.9031 33.9784 72.3309 33.5506C72.7587 33.1228 72.9991 32.5425 72.9991 31.9375C72.9991 31.3325 72.7587 30.7522 72.3309 30.3244C71.9031 29.8966 71.3228 29.6562 70.7178 29.6562H66.1553Z" fill="#C72D3C"/>
</g>
</g>
<defs>
<clipPath id="clip0_521_91">
<rect width="73" height="73" fill="white"/>
</clipPath>
</defs>
</svg>
