<svg width="73" height="68" viewBox="0 0 73 68" fill="none" xmlns="http://www.w3.org/2000/svg">
<g id="bi:cloud-sun-fill">
<path id="Vector" d="M51.8421 65.3364L50.1684 63.8682C44.5895 58.2894 40.6842 54.766 40.6842 50.3616C40.6842 46.8382 43.4737 43.902 46.8211 43.902C48.7737 43.902 50.7263 44.7828 51.8421 46.2509C52.9579 44.7828 54.9105 43.902 56.8632 43.902C60.2105 43.902 63 46.5446 63 50.3616C63 54.766 59.0947 58.2894 53.5158 63.8682L51.8421 65.3364ZM15.5789 61.5193C14.0993 61.5193 12.6803 60.9006 11.634 59.7993C10.5878 58.698 10 57.2043 10 55.6468V8.66736C10 5.40816 12.4826 2.79492 15.5789 2.79492H18.3684V23.3484L25.3421 18.9441L32.3158 23.3484V2.79492H49.0526C50.5323 2.79492 51.9513 3.41362 52.9975 4.51492C54.0438 5.61621 54.6316 7.10989 54.6316 8.66736V35.3282L51.8421 35.0933C48.9049 35.0958 46.02 35.9112 43.4766 37.4577C40.9333 39.0042 38.821 41.2274 37.3516 43.9044C35.8822 46.5814 35.1073 49.6181 35.1047 52.7098C35.1021 55.8015 35.8719 58.8396 37.3368 61.5193H15.5789Z" fill="#C72D3C"/>
</g>
</svg>
