<svg width="73" height="68" viewBox="0 0 73 68" fill="none" xmlns="http://www.w3.org/2000/svg">
<g id="bi:cloud-sun-fill">
<path id="Vector" d="M37.84 4.66219H37C33.323 4.66219 29.682 5.41706 26.2849 6.88369C22.8877 8.35033 19.8011 10.5 17.201 13.21C11.95 18.6831 9 26.1061 9 33.8462C9 41.5863 11.95 49.0093 17.201 54.4824C19.8011 57.1924 22.8877 59.3421 26.2849 60.8087C29.682 62.2753 33.323 63.0302 37 63.0302C45.4 63.0302 50.16 60.1118 55.2 55.7342C39.8 60.1118 25.8 48.4382 25.8 33.8462C25.8 19.2542 39.8 7.58059 55.2 11.9582C52.9239 9.59043 50.214 7.72427 47.2316 6.47082C44.2492 5.21738 41.0552 4.6023 37.84 4.66219ZM50.44 16.9195L46.24 27.1339L35.88 28.0094L44 35.3054L41.48 45.5198L50.44 39.683L59.4 45.5198L56.6 35.3054L65 28.0094L54.64 27.1339L50.44 16.9195Z" fill="#C72D3C"/>
</g>
</svg>
