<svg width="28" height="28" viewBox="0 0 28 28" fill="none" xmlns="http://www.w3.org/2000/svg">
<g id="mdi:youtube">
<path id="Vector" d="M11.6654 17.5007L17.7204 14.0007L11.6654 10.5007V17.5007ZM25.152 8.36565C25.3037 8.91398 25.4087 9.64898 25.4787 10.5823C25.5604 11.5157 25.5954 12.3207 25.5954 13.0207L25.6654 14.0007C25.6654 16.5557 25.4787 18.434 25.152 19.6357C24.8604 20.6857 24.1837 21.3623 23.1337 21.654C22.5854 21.8057 21.582 21.9107 20.042 21.9807C18.5254 22.0623 17.137 22.0973 15.8537 22.0973L13.9987 22.1673C9.11036 22.1673 6.06536 21.9807 4.8637 21.654C3.8137 21.3623 3.13703 20.6857 2.84536 19.6357C2.6937 19.0873 2.5887 18.3523 2.5187 17.419C2.43703 16.4857 2.40203 15.6807 2.40203 14.9807L2.33203 14.0007C2.33203 11.4457 2.5187 9.56732 2.84536 8.36565C3.13703 7.31565 3.8137 6.63898 4.8637 6.34732C5.41203 6.19565 6.41537 6.09065 7.95537 6.02065C9.47203 5.93898 10.8604 5.90398 12.1437 5.90398L13.9987 5.83398C18.887 5.83398 21.932 6.02065 23.1337 6.34732C24.1837 6.63898 24.8604 7.31565 25.152 8.36565Z" fill="white" fill-opacity="0.75"/>
</g>
</svg>
